<svg xmlns="http://www.w3.org/2000/svg" viewBox="0 0 280 280" role="img" aria-labelledby="titleDesc">
  <title id="titleDesc">Cute English Learning Illustration</title>
  <desc>Illustration of a cute book mascot with speech bubble and stars.</desc>
  <defs>
    <linearGradient id="bgGradient" x1="0" x2="1" y1="0" y2="1">
      <stop offset="0%" stop-color="#6aa8ff"/>
      <stop offset="100%" stop-color="#c5e2ff"/>
    </linearGradient>
  </defs>
  <rect width="280" height="280" rx="40" fill="url(#bgGradient)"/>
  <g transform="translate(70 70)">
    <rect x="0" y="20" width="140" height="120" rx="24" fill="#fff" stroke="#3868d4" stroke-width="8"/>
    <path d="M0 20 L140 20" stroke="#3868d4" stroke-width="8"/>
    <circle cx="38" cy="70" r="10" fill="#3868d4"/>
    <circle cx="102" cy="70" r="10" fill="#3868d4"/>
    <path d="M48 100 Q70 124 92 100" fill="none" stroke="#3868d4" stroke-width="10" stroke-linecap="round"/>
    <path d="M18 30 Q30 0 54 14" fill="none" stroke="#3868d4" stroke-width="8"/>
    <path d="M122 30 Q134 0 158 14" fill="none" stroke="#3868d4" stroke-width="8"/>
  </g>
  <path d="M180 40 Q220 20 240 60 Q220 45 210 70 Q190 50 180 40" fill="#fff" stroke="#3868d4" stroke-width="6"/>
  <text x="185" y="62" font-family="Segoe UI, sans-serif" font-size="16" fill="#3868d4">Hi!</text>
  <circle cx="60" cy="220" r="12" fill="#fff" opacity="0.7"/>
  <circle cx="210" cy="220" r="10" fill="#fff" opacity="0.75"/>
  <circle cx="220" cy="40" r="8" fill="#fff" opacity="0.8"/>
</svg>
